<?xml version="1.0" encoding="ISO-8859-1" standalone="yes"?>
<svg xmlns="http://www.w3.org/2000/svg"
     xmlns:xlink="http://www.w3.org/1999/xlink"
     width="310.96" height="367.914">
  <defs> 
    <marker id="ArrowEnd" viewBox="0 0 10 10" refX="0" refY="5" 
     markerUnits="strokeWidth" 
     markerWidth="4" 
     markerHeight="3" 
     orient="auto"> 
        <path d="M 0 0 L 10 5 L 0 10 z" /> 
    </marker>
    <marker id="ArrowStart" viewBox="0 0 10 10" refX="10" refY="5" 
     markerUnits="strokeWidth" 
     markerWidth="4" 
     markerHeight="3" 
     orient="auto"> 
        <path d="M 10 0 L 0 5 L 10 10 z" /> 
    </marker> </defs>
<g>
</g>
<g>
<path style="stroke:none; fill:#000000" d="M 280.594 246.472C 275.837 266.04 251.731 306.918 238.928 324.908C 226.116 342.968 227.704 359.228 204.028 352.902C 180.421 346.566 173.804 347.715 149.409 349.154C 125.161 350.593 130.409 348.434 115.227 355.271C 100.116 362.106 49.3837 272.378 45.2858 255.677C 41.2477 238.986 42.0228 236.911 49.8138 217.516C 56.2507 201.486 63.8807 182.979 75.7197 165.157C 90.0918 143.52 105.653 132.056 104.503 115.285C 99.9757 53.0386 96.3777 21.9566 124.002 7.5636C 150.347 -6.10742 172.366 2.01758 181.071 6.69458C 184.809 8.71362 192.444 12.6016 198.121 19.4376C 203.807 26.1246 208.915 36.2786 211.793 49.0816C 217.699 74.7776 209.355 66.2816 216.041 95.7146C 222.667 125.069 236.119 139.461 252.53 162.708C 268.931 185.956 286.062 224.304 280.594 246.472z"/>
<g>
<path style="stroke:none; fill:#000000" d="M 231.514 150.021C 232.184 149.554 232.259 148.849 231.718 148.058C 231.172 147.259 230.407 147.024 229.771 147.458C 229.235 147.824 229.168 148.274 229.526 149.22L 229.751 149.815C 229.919 150.257 229.884 150.502 229.635 150.671C 229.315 150.892 228.88 150.718 228.552 150.24C 228.352 149.946 228.267 149.639 228.316 149.403C 228.356 149.251 228.428 149.145 228.648 148.946L 228.254 148.371C 227.48 148.938 227.404 149.643 228.018 150.539C 228.608 151.403 229.41 151.662 230.07 151.21C 230.581 150.861 230.665 150.381 230.364 149.588L 230.13 148.98C 229.931 148.463 229.945 148.175 230.187 148.009C 230.501 147.795 230.896 147.937 231.201 148.382C 231.5 148.821 231.471 149.186 231.12 149.446L 231.514 150.021z"/>
<path style="stroke:none; fill:#000000" d="M 233.418 150.755L 233.047 150.212L 229.618 152.557L 229.989 153.1L 233.418 150.755zM 234.76 149.838L 234.384 149.289L 233.697 149.758L 234.072 150.308L 234.76 149.838z"/>
<path style="stroke:none; fill:#000000" d="M 234.054 151.684L 230.625 154.029L 231 154.579L 233.154 153.106C 233.651 152.767 234.296 152.854 234.6 153.299C 234.878 153.705 234.785 154.103 234.347 154.404L 231.984 156.019L 232.361 156.568L 234.514 155.096C 235.011 154.757 235.656 154.843 235.961 155.289C 236.234 155.687 236.139 156.098 235.708 156.393L 233.344 158.008L 233.721 158.558L 236.293 156.799C 236.908 156.379 237.007 155.793 236.568 155.152C 236.254 154.693 235.929 154.512 235.324 154.456C 235.552 154.003 235.521 153.62 235.217 153.175C 234.903 152.717 234.527 152.532 233.914 152.52L 234.398 152.188L 234.054 151.684z"/>
<path style="stroke:none; fill:#000000" d="M 238.783 158.391C 238.126 157.429 237.039 157.316 235.888 158.104C 234.736 158.891 234.442 159.937 235.109 160.912C 235.767 161.874 236.857 161.993 237.982 161.224C 239.167 160.414 239.459 159.379 238.783 158.391zM 238.284 158.742C 238.704 159.358 238.451 160.068 237.599 160.65C 236.795 161.2 236.025 161.17 235.613 160.567C 235.197 159.959 235.446 159.241 236.277 158.673C 237.102 158.109 237.867 158.134 238.284 158.742z"/>
<path style="stroke:none; fill:#000000" d="M 240.269 160.774L 236.84 163.119L 237.215 163.669L 239.106 162.376C 239.807 161.898 240.515 161.95 240.9 162.513C 241.195 162.946 241.121 163.399 240.709 163.681L 238.333 165.306L 238.705 165.849L 241.297 164.077C 241.866 163.688 241.941 163.011 241.49 162.35C 241.14 161.84 240.72 161.647 240.037 161.673L 240.613 161.279L 240.269 160.774z"/>
<path style="stroke:none; fill:#000000" d="M 245.267 168.411L 244.738 168.562C 244.998 168.143 245.007 167.734 244.761 167.374C 244.161 166.497 242.747 166.283 241.798 166.931C 241.118 167.397 240.914 168.208 241.33 168.817C 241.567 169.163 241.904 169.347 242.436 169.424C 242.143 169.712 242.143 170.076 242.424 170.489C 242.756 170.973 243.218 171.243 243.839 171.308C 244.504 171.381 245.173 171.221 245.683 170.873C 247.012 169.965 247.254 167.945 246.212 166.421C 245.68 165.642 244.795 165.036 243.877 164.818C 242.857 164.575 241.712 164.782 240.854 165.368C 239.401 166.362 239.14 168.48 240.272 170.136C 240.604 170.62 241.059 171.076 241.558 171.427L 241.871 170.944C 241.354 170.51 241.04 170.177 240.799 169.823C 239.85 168.437 240.082 166.712 241.332 165.857C 242.707 164.918 244.706 165.299 245.65 166.679C 246.505 167.93 246.309 169.61 245.216 170.356C 244.449 170.881 243.339 170.843 242.959 170.287C 242.838 170.11 242.866 169.87 243.024 169.762C 243.082 169.723 243.217 169.668 243.404 169.618L 245.639 168.954L 245.267 168.411zM 244.315 167.621C 244.566 167.987 244.475 168.444 244.108 168.666C 243.771 168.877 243.1 169.076 242.747 169.077C 242.353 169.078 242.031 168.943 241.865 168.701C 241.619 168.34 241.762 167.821 242.194 167.525C 242.928 167.023 243.939 167.072 244.315 167.621z"/>
<path style="stroke:none; fill:#000000" d="M 248.567 170.034L 243.796 173.296L 244.133 173.787L 244.57 173.486C 244.351 174.022 244.397 174.498 244.724 174.976C 245.341 175.879 246.484 175.963 247.622 175.184C 248.735 174.423 249.038 173.391 248.42 172.487C 248.098 172.017 247.693 171.803 247.133 171.812L 248.938 170.577L 248.567 170.034zM 247.838 172.732C 248.254 173.341 247.993 174.096 247.174 174.655C 246.395 175.187 245.588 175.144 245.18 174.549C 244.787 173.972 245.051 173.235 245.856 172.685C 246.661 172.134 247.445 172.156 247.838 172.732z"/>
<path style="stroke:none; fill:#000000" d="M 248.199 179.736L 251.628 177.391L 251.257 176.848L 249.313 178.177C 248.613 178.656 247.904 178.602 247.515 178.033C 247.22 177.601 247.294 177.147 247.706 176.866L 250.134 175.206L 249.762 174.662L 247.119 176.47C 246.549 176.858 246.474 177.535 246.93 178.202C 247.274 178.706 247.67 178.906 248.341 178.918L 247.864 179.244L 248.199 179.736z"/>
<path style="stroke:none; fill:#000000" d="M 255.516 180.198L 255.144 179.655L 253.371 180.867C 253.561 180.401 253.494 179.909 253.181 179.451C 252.572 178.561 251.461 178.466 250.368 179.213C 249.209 180.006 248.885 181.062 249.516 181.985C 249.838 182.456 250.238 182.663 250.865 182.667L 250.414 182.975L 250.745 183.46L 255.516 180.198zM 252.733 179.891C 253.135 180.48 252.867 181.211 252.048 181.771C 251.257 182.312 250.474 182.291 250.08 181.714C 249.668 181.112 249.926 180.351 250.724 179.805C 251.523 179.259 252.325 179.295 252.733 179.891z"/>
<path style="stroke:none; fill:#000000" d="M 255.118 182.496L 254.747 181.952L 251.317 184.297L 251.688 184.84L 255.118 182.496zM 256.46 181.578L 256.084 181.029L 255.397 181.498L 255.773 182.049L 256.46 181.578z"/>
<path style="stroke:none; fill:#000000" d="M 257.284 185.664L 256.786 186.003C 257.004 185.451 256.966 184.988 256.666 184.549C 256.071 183.679 254.909 183.608 253.797 184.37C 253.234 184.754 252.879 185.217 252.743 185.722C 252.63 186.174 252.711 186.658 252.957 187.018C 253.252 187.449 253.641 187.625 254.283 187.638L 254.106 187.758C 253.642 188.077 253.321 188.209 253.036 188.202C 252.735 188.197 252.425 187.996 252.197 187.662C 252.027 187.413 251.941 187.146 251.955 186.915C 251.968 186.724 252.024 186.609 252.205 186.438L 251.824 185.881C 251.216 186.383 251.175 187.151 251.725 187.956C 252.074 188.466 252.538 188.793 252.965 188.827C 253.458 188.874 253.957 188.677 254.762 188.127L 257.628 186.168L 257.284 185.664zM 256.202 184.952C 256.605 185.541 256.345 186.228 255.488 186.814C 254.669 187.374 253.93 187.361 253.536 186.784C 253.129 186.189 253.387 185.485 254.219 184.916C 255.044 184.353 255.804 184.37 256.202 184.952z"/>
<path style="stroke:none; fill:#000000" d="M 256.034 189.734L 255.569 189.055L 254.888 189.519L 255.353 190.2L 256.034 189.734z"/>
<path style="stroke:none; fill:#000000" d="M 262.728 190.747L 262.357 190.204L 260.583 191.417C 260.773 190.951 260.706 190.458 260.393 190.001C 259.784 189.11 258.673 189.016 257.58 189.762C 256.422 190.555 256.098 191.612 256.728 192.535C 257.051 193.006 257.451 193.213 258.078 193.216L 257.627 193.524L 257.957 194.009L 262.728 190.747zM 259.945 190.441C 260.348 191.03 260.08 191.761 259.261 192.32C 258.47 192.862 257.686 192.841 257.293 192.264C 256.881 191.662 257.139 190.9 257.936 190.354C 258.735 189.808 259.538 189.845 259.945 190.441z"/>
<path style="stroke:none; fill:#000000" d="M 262.056 196.719C 262.58 196.36 262.868 196.106 263.056 195.834C 263.467 195.227 263.449 194.47 263.01 193.829C 262.357 192.873 261.204 192.759 260.078 193.529C 258.952 194.299 258.666 195.368 259.324 196.33C 259.861 197.116 260.677 197.354 261.516 196.982L 261.141 196.432C 260.587 196.591 260.14 196.444 259.841 196.006C 259.603 195.659 259.559 195.257 259.722 194.877C 259.829 194.612 259.994 194.431 260.33 194.192L 262.056 196.719zM 260.784 193.901C 261.45 193.513 262.126 193.617 262.502 194.167C 262.869 194.704 262.706 195.42 262.143 195.805C 262.13 195.813 262.117 195.823 262.099 195.825L 260.784 193.901z"/>
</g>
</g>
<g>
<path style="stroke:none; fill:#ffffff" d="M 137.175 129.177C 127.821 129.537 115.467 104.577 114.284 114.206C 113.161 123.356 112.848 123.27 112.848 132.195C 112.848 138.172 110.12 138.602 104.213 147.597C 101.195 152.344 98.8158 157.452 96.9477 162.639C 95.7977 165.727 94.7177 168.965 93.8587 172.133C 93.4987 173.722 92.8487 175.371 92.4897 176.96C 89.5407 187.825 79.0267 201.207 76.5887 212.071C 74.1397 222.865 71.1617 229.773 71.6217 244.242C 71.9818 255.582 72.1207 254.527 76.5087 258.125C 80.8267 261.723 85.2927 265.111 92.1297 271.148C 99.3257 277.415 114.287 288.348 116.306 291.736C 118.466 295.185 120.347 300.666 117.096 305.478C 113.845 310.293 100.945 309.731 101.015 309.731C 100.945 309.731 112.214 323.107 114.153 325.057C 116.022 326.925 126.311 335.772 159.123 329.655C 177.612 326.197 191.935 315.843 202.298 305.839C 215.681 292.816 216.622 288.771 219.092 281.484C 222.223 272.245 223.732 265.245 224.733 260.845C 225.649 256.813 226.905 244.602 226.905 238.846C 226.905 223.874 225.185 208.623 221.728 197.389C 218.56 186.885 213.523 179.549 209.205 170.045C 200.569 151.125 200.999 142.629 193.303 130.546C 184.529 116.584 188.846 107.3 177.182 107.878C 162.65 108.669 150.917 128.597 137.175 129.177z"/>
<path style="stroke:none; fill:#000000" d="M 173.015 170.125C 173.444 168.176 193.804 164.867 197.481 165.946C 201.079 167.026 217.55 190.194 214.672 191.132C 211.873 192.072 205.607 182.497 195.683 177.89C 185.678 173.283 172.655 172.063 173.015 170.125z"/>
<path style="stroke:none; fill:#000000" d="M 127.664 215.105C 129.533 215.464 126.55 228.986 126.411 242.879C 126.26 256.771 128.883 262.738 127.664 264.107C 126.434 265.476 123.266 258.93 123.416 245.038C 123.556 231.145 125.785 214.675 127.664 215.105z"/>
<path style="stroke:none; fill:#000000" d="M 135.235 168.606C 136.315 168.685 144.15 167.026 144.441 167.746C 144.73 168.246 139.553 169.904 137.965 171.484C 137.604 171.924 135.955 173.363 135.086 173.283C 134.366 173.213 133.937 171.773 132.928 170.623C 130.409 168.106 128.829 168.326 129.329 167.385C 129.69 166.596 133.147 168.535 135.235 168.606z"/>
<path style="stroke:none; fill:#000000" d="M 109.559 170.693C 109.098 172.677 102.258 173.61 97.3957 176.376C 94.4297 178.064 92.8677 180.608 88.8107 183.964C 84.7537 187.319 102.39 143.878 101.392 149.494C 100.394 155.112 98.4787 158.209 99.4857 161.585C 101.274 167.579 110.02 168.708 109.559 170.693z"/>
</g>
<g>
<path style="stroke:none; fill:#ffb80f" d="M 280.735 263.383C 285.192 269.859 280.594 278.274 283.832 283.461C 289.15 291.946 299.874 300.511 303.982 302.891C 306.93 304.689 311.098 306.409 310.957 311.665C 310.738 317.642 307.789 319.221 306.141 320.88C 302.823 324.188 286.131 332.464 275.048 340.02C 261.086 349.584 256.268 353.831 251.731 358.37C 244.685 365.416 237.988 367.794 227.265 367.794C 216.55 367.794 211.723 365.566 208.415 362.616C 205.106 359.739 201.439 352.392 201.799 341.459C 202.079 330.595 205.536 320.66 207.196 303.749C 207.916 296.484 207.835 287.489 207.835 279.503C 207.835 269.429 207.985 260.864 210.144 259.564C 214.032 257.116 214.892 256.976 219.498 256.976C 224.106 256.976 226.185 257.266 227.704 258.774C 229.143 260.214 228.563 263.522 228.065 268.199C 227.624 272.877 229.863 274.386 232.092 276.335C 234.321 278.203 236.34 280.583 243.386 281.152C 250.442 281.663 253.03 280.503 256.338 278.423C 259.647 276.335 264.324 272.587 266.053 270.428C 267.712 268.35 271.81 261.153 272.599 261.153C 273.319 261.153 278.076 259.495 280.735 263.383z"/>
<path style="stroke:none; fill:#ffb80f" d="M 29.7347 274.466C 23.2587 279.144 6.85774 278.704 2.67975 284.18C -1.41826 289.648 2.82875 297.563 2.74875 312.245C 2.74875 318.502 1.67075 323.249 0.950745 327.066C -0.0482635 331.884 -0.698257 335.272 1.30974 338.72C 4.98874 344.836 10.8848 346.346 44.6357 353.403C 62.6957 357.14 79.7467 366.854 91.1908 367.794C 102.634 368.654 105.083 364.846 112.059 358.659C 118.965 352.462 121.204 354.411 120.984 340.809C 120.764 327.277 112.059 323.249 102.204 307.637C 92.3397 292.016 90.7598 289.139 84.2147 278.784C 77.6677 268.559 64.7147 250 57.2987 249.779C 51.4027 249.64 48.0847 252.798 44.4157 256.546C 40.7487 260.284 36.2107 269.789 29.7347 274.466z"/>
</g>
<g>
<path style="stroke:none; fill:#ffffff" d="M 125.661 94.9956C 129.979 93.2676 130.118 93.4066 132.997 87.1506C 135.305 82.3326 136.455 79.8836 136.385 72.5386C 136.385 65.3426 134.156 62.9046 130.768 58.2256C 127.53 53.7586 122.353 53.5496 119.115 54.1186C 117.246 54.4076 114.797 56.7876 113.139 60.3056C 112.059 62.6836 111.199 65.7026 111.129 68.8706C 110.91 77.3646 111.629 80.6046 113.567 86.3606C 115.877 93.1266 121.484 96.6446 125.661 94.9956z"/>
<path style="stroke:none; fill:#000000" d="M 121.633 65.7026C 123.792 65.7026 126.521 67.1406 127.821 69.0896C 129.189 71.0286 130.199 73.7676 130.199 76.8556C 130.199 81.4636 129.69 86.5706 126.96 88.1586C 126.091 88.6596 124.222 89.0886 123.143 89.0886C 120.694 89.0886 120.484 87.5096 118.175 85.1316C 117.386 84.2716 115.006 80.0936 115.006 76.6456C 115.006 74.4876 114.508 71.3886 116.377 68.6606C 117.676 66.6416 119.324 65.7026 121.633 65.7026z"/>
<path style="stroke:none; fill:#ffffff" d="M 170.277 95.9256C 181.071 94.7766 184.888 90.6076 186.827 83.3326C 188.556 76.8556 188.625 69.6596 183.809 61.2446C 179.271 53.1886 176.684 51.8896 170.136 51.3896C 160.062 50.5206 155.305 57.5766 153.075 62.6136C 150.708 68.0806 151.208 67.2916 151.347 74.1976C 151.497 81.4636 153.725 84.4926 156.244 89.0196C 158.762 93.4876 169.056 96.0056 170.277 95.9256z"/>
<path style="stroke:none; fill:#000000" d="M 169.417 65.4226C 174.814 65.4226 177.972 70.2396 179.051 76.4266C 179.491 79.2336 178.842 82.4716 177.112 84.7016C 175.173 87.2896 171.715 88.8796 168.907 88.8796C 166.249 88.8796 163.221 89.3086 161.641 87.1506C 160.061 84.9206 159.702 79.9546 159.702 76.4266C 159.702 72.4686 160.852 69.6596 162.861 67.4316C 164.379 65.7826 167.108 65.4226 169.417 65.4226z"/>
<path style="stroke:none; fill:#ffffff" d="M 170.566 68.8006C 171.136 68.2206 172.366 68.8006 173.735 70.3096C 175.173 71.8996 175.173 73.1886 174.015 74.0576C 172.935 74.9876 172.505 72.6886 171.785 71.8186C 170.496 70.5296 169.417 69.8796 170.566 68.8006z"/>
<path style="stroke:none; fill:#ffffff" d="M 122.124 69.4806C 122.533 68.6926 124.54 68.8916 125.423 70.3726C 126.3 71.9066 126.45 75.4356 125.979 75.5876C 124.73 76.0696 124.817 73.9656 123.673 72.5666C 122.59 71.1556 121.713 70.3216 122.124 69.4806z"/>
<path style="stroke:none; fill:#ffffff" d="M 174.327 47.0146C 174.362 47.5946 177.502 48.1676 178.802 48.6386C 180.102 49.1086 183.144 51.7486 184.334 53.1196C 185.524 54.4896 187.722 58.9426 188.446 58.7476C 189.173 58.5506 187.579 55.5526 186.428 53.8926C 185.277 52.2346 181.715 48.4496 179.447 47.5146C 177.177 46.5806 174.291 46.4376 174.327 47.0146z"/>
<path style="stroke:none; fill:#ffffff" d="M 125.069 49.2716C 125.113 50.3076 128.464 49.9856 131.94 52.9846C 135.491 56.0486 135.886 58.7766 136.972 58.6736C 138.06 58.5706 136.407 55.2006 132.778 51.9806C 129.936 49.4576 125.027 48.2376 125.069 49.2716z"/>
</g>
<g>
<path style="stroke:none; fill:#ffb80f" d="M 142.142 79.8146C 147.389 79.1646 154.585 80.4536 157.903 82.9026C 160.991 85.2116 163.15 86.4306 165.959 87.3696C 175.384 90.4586 187.767 91.8976 187.187 100.393C 186.537 110.538 183.588 115.075 175.173 117.734C 168.408 119.822 156.314 131.546 146.959 131.546C 142.791 131.546 136.955 131.766 133.577 130.546C 130.339 129.387 125.8 123.92 120.484 119.533C 115.157 115.215 110.19 110.607 110.049 104.56C 109.83 98.1636 114.008 96.0746 119.905 90.9686C 123.003 88.2296 128.61 83.6926 132.498 81.6826C 136.096 79.8836 138.394 80.2446 142.142 79.8146z"/>
<path style="stroke:none; fill:#000000" d="M 125.081 114.613C 123.415 114.011 121.773 113.056 121.123 112.476C 118.825 111.03 114.749 107.119 113.358 106.22C 112.928 106.08 111.731 106.168 111.989 107.009C 112.713 109.368 114.253 110.776 116.3 112.419C 118.8 114.425 121.88 116.415 124.574 117.765C 126.159 118.561 130.118 119.463 130.118 119.463C 133.926 119.963 137.465 119.822 139.763 119.822C 145.16 119.822 151.856 117.594 158.903 114.206C 165.818 110.758 167.468 109.388 172.366 106.58C 177.112 103.921 183.09 100.463 181 99.4536C 178.911 98.3746 176.823 99.8826 169.986 103.991C 163.371 108.019 158.833 110.538 152.217 113.416C 149.188 114.715 145.16 116.295 142.142 116.514C 139.264 116.725 135.516 116.654 133.287 116.654C 130.699 116.654 127.805 115.595 125.081 114.613z"/>
<path style="stroke:none; fill:#000000" d="M 146.39 84.7716C 147.179 86.3606 149.188 86.5706 150.558 87.3696C 151.856 88.0896 152.577 88.2296 153.075 87.9396C 154.225 87.3696 153.366 85.2816 152.217 84.5616C 151.137 83.8426 145.95 83.6926 146.39 84.7716z"/>
<path style="stroke:none; fill:#000000" d="M 130.559 87.1506C 130.339 87.7996 132.137 89.0196 132.997 88.1586C 134.006 87.3696 135.156 86.5706 135.596 86.2906C 137.395 85.1316 136.675 84.3426 133.797 84.7716C 130.838 85.3506 130.838 86.5006 130.559 87.1506z"/>
</g>
<g>
<path style="stroke:none; fill:#ffffff" d="M 247.929 223.027C 246.869 230.621 246.293 233.507 244.759 238.58C 243.459 242.886 241.61 247.198 241.1 248.499C 240.895 249.021 241.963 248.947 242.423 248.293C 242.883 247.639 243.223 246.997 243.751 245.813C 245.923 240.945 251.103 225.191 249.172 211.959C 247.473 200.316 243.162 190.633 233.877 180.833C 231.116 177.92 221.883 172.212 221.235 173.335C 220.745 174.184 229.055 176.05 237.743 187.625C 245.562 198.037 249.485 211.891 247.929 223.027z"/>
<path style="stroke:none; fill:#ffffff" d="M 234.832 249.74C 237.35 248.116 243.148 247.536 246.809 247.723C 250.469 247.912 254.617 248.539 254.617 248.539C 254.617 248.539 258.301 249.083 261.661 250.442C 265.023 251.801 269.318 254.362 269.516 256.913C 269.715 259.464 268.22 258.499 266.734 256.231C 265.248 253.961 262.386 252.245 258.859 251.062C 255.331 249.879 250.199 249.366 248.141 249.241C 246.083 249.115 240.839 249.096 237.802 250.077C 234.765 251.058 233.192 253.383 231.757 253.688C 230.321 253.991 232.312 251.365 234.832 249.74z"/>
<path style="stroke:none; fill:#ffffff" d="M 63.6677 225.428C 62.9527 233.507 64.1027 240.197 66.3937 244.849C 68.8927 249.928 76.6587 256.574 76.1467 257.092C 75.0497 258.201 66.3057 248.111 64.5788 244.32C 62.2497 239.208 61.1967 233.169 62.1527 224.617C 63.4597 212.925 67.3828 203.683 71.9877 193.883C 73.6937 190.251 78.7077 180.919 79.5577 181.898C 80.6328 183.138 76.6417 186.031 71.2677 198.971C 66.2737 210.994 64.4877 216.163 63.6677 225.428z"/>
<path style="stroke:none; fill:#ffffff" d="M 173.735 19.2876C 172.865 20.2976 171.856 28.9326 174.094 29.8016C 176.253 30.7316 183.948 26.9936 183.659 24.9746C 183.229 22.0266 180.061 18.3596 178.772 18.2086C 177.472 18.1386 174.524 18.1386 173.735 19.2876z"/>
<path style="stroke:none; fill:#ffffff" d="M 198.7 109.818C 198.051 110.538 199.2 116.874 203.308 121.041C 207.336 125.069 209.854 125.069 211.513 123.27C 214.672 119.892 212.153 116.725 210.213 114.495C 208.275 112.266 205.756 113.056 203.448 110.827C 201.219 108.599 199.641 108.739 198.7 109.818z"/>
</g>
</svg>
